# xmcd
#
# Track frame offsets:
# 150
# 16912
# 40445
# 82733
# 138872
# 186074
# 224002
#
# Disc length: 3646 seconds
#
#
# Revision: 2
# Processed by: cddbd v1.5.2PL0 Copyright (c) Steve Scherf et al.
# Submitted via: FreeRIP 2.951 
#
DISCID=570e3c07
DTITLE=Grateful Dead - 03.27.1988 - Hampton Coliseum - Hampton, VA
DYEAR=1988
DGENRE=Psychedelic Rock
TTITLE0=Space -> So What ->
TTITLE1=Sugar Magnolia >
TTITLE2=Scarlet Begonias ->
TTITLE3=Fire On The Mountain ->
TTITLE4=Estimated Prophet ->
TTITLE5=Eyes Of The World ->
TTITLE6=Drums -> Space ->
EXTD=Audience
EXTT0=
EXTT1=
EXTT2=
EXTT3=
EXTT4=
EXTT5=
EXTT6=
PLAYORDER=
